<?xml version="1.0" encoding="utf-8"?>
<!-- Generator: Adobe Illustrator 16.0.0, SVG Export Plug-In . SVG Version: 6.00 Build 0)  -->
<!DOCTYPE svg PUBLIC "-//W3C//DTD SVG 1.1//EN" "http://www.w3.org/Graphics/SVG/1.1/DTD/svg11.dtd">
<svg xmlns="http://www.w3.org/2000/svg" xmlns:xlink="http://www.w3.org/1999/xlink" version="1.1" id="Furniture_x5F_TV_x5F_Table" x="0px" y="0px" width="512" height="512" viewBox="0 0 144.083 144" enable-background="new 0 0 144.083 144" xml:space="preserve">
<path d="M119.042,75.817h-44v-5.9h25.939c1.657,0,3-1.343,3-3v-37c0-1.657-1.343-3-3-3h-57.88c-1.657,0-3,1.343-3,3v37  c0,1.657,1.343,3,3,3h25.94v5.9h-44c-1.657,0-3,1.343-3,3v35.266c0,1.657,1.343,3,3,3h94c1.657,0,3-1.343,3-3V78.817  C122.042,77.16,120.699,75.817,119.042,75.817z M46.101,32.917h51.88v31h-51.88V32.917z M53.238,99.45h37.606v11.633H53.238V99.45z   M90.844,93.45H53.238V81.817h37.606V93.45z M28.041,81.817h19.197v29.266H28.041V81.817z M116.042,111.083H96.844V81.817h19.197  V111.083z"/>
<rect x="34.646" y="93.584" width="6" height="5.732"/>
<rect x="103.436" y="93.584" width="6" height="5.732"/>
</svg>
